; OM File Header - Saved 2024/04/08 15:20:26
; (7.02 :patc (om-make-point 44 126) (om-make-point 50 50) (om-make-point 924 568) "" 183 0 "2024/04/08 15:04:12" "2024/04/08 15:20:26")
; End File Header
(in-package :om)(load-lib-for (quote nil))(setf *om-current-persistent* (om-load-patch1 "GiL_ex" (quote ((let ((box (om-load-boxcall (quote lispfun) "BAB" (quote |gilf|::bab) (quote nil) (om-make-point 365 168) nil nil nil nil 1))) (when (fboundp (quote set-active)) (set-active box nil)) box) (let ((box (om-load-boxcall (quote lispfun) "SOLUTION-TO-INT-ARRAY" (quote |gilf|::solution-to-int-array) (quote ((om-load-inputfun (quote input-funbox) "SP" "SP" nil))) (om-make-point 313 401) nil nil nil nil 1))) (when (fboundp (quote set-active)) (set-active box nil)) box) (let ((box (om-load-boxcall (quote lispfun) "RETURN-NEXT-SOLUTION-SPACE" (quote |gilf|::return-next-solution-space) (quote ((om-load-inputfun (quote input-funbox) "SOLVER" "SOLVER" nil))) (om-make-point 238 312) nil nil nil nil 1))) (when (fboundp (quote set-active)) (set-active box nil)) box) (let ((box (om-load-boxcall (quote lispfun) "CREATE-SOLVER" (quote |gilf|::create-solver) (quote ((om-load-inputfun (quote input-funbox) "SP" "SP" nil) (om-load-inputfun (quote input-funbox) "SOLVER-TYPE" "SOLVER-TYPE" nil))) (om-make-point 280 239) nil (list nil) "x" nil 1))) (when (fboundp (quote set-active)) (set-active box nil)) box) (let ((box (om-load-boxcall (quote lispfun) "NEW-CTP-PROBLEM" (quote |gilf|::new-ctp-problem) (quote ((om-load-inputfun (quote input-funbox) "LB" "LB" 1) (om-load-inputfun (quote input-funbox) "UB" "UB" 5) (om-load-inputfun (quote input-funbox) "SP" "SP" 6) (om-load-inputfun (quote input-funbox) "CF" "CF" (list 1 2 4)))) (om-make-point 236 163) nil (list nil) "x" nil 1))) (when (fboundp (quote set-active)) (set-active box nil)) box))) (quote ((2 0 1 0 nil 0) (3 0 2 0 nil 0) (4 0 3 0 nil 0) (0 0 3 1 nil 0))) nil 7.02))
